<?xml version="1.0" encoding="utf-8"?>
<!-- Generator: Adobe Illustrator 26.0.1, SVG Export Plug-In . SVG Version: 6.00 Build 0)  -->
<svg version="1.1" id="Layer_1" xmlns="http://www.w3.org/2000/svg" xmlns:xlink="http://www.w3.org/1999/xlink" x="0px" y="0px"
	 viewBox="0 0 841.89 342.98" style="enable-background:new 0 0 841.89 342.98;" xml:space="preserve">
<style type="text/css">
	.st0{clip-path:url(#SVGID_00000106123826883893674800000004031818038072554939_);}
	.st1{fill:#FFFFFF;}
</style>
<g>
	<defs>
		<rect id="SVGID_1_" x="7.2" width="827.48" height="342.98"/>
	</defs>
	<clipPath id="SVGID_00000051375100764164293180000006409449494815728803_">
		<use xlink:href="#SVGID_1_"  style="overflow:visible;"/>
	</clipPath>
</g>
<g>
	<defs>
		<rect id="SVGID_00000139255136292966312990000009183070494898915470_" x="7.2" width="827.48" height="342.98"/>
	</defs>
	<clipPath id="SVGID_00000072273864171278623760000002653793980836116645_">
		<use xlink:href="#SVGID_00000139255136292966312990000009183070494898915470_"  style="overflow:visible;"/>
	</clipPath>
	<g style="clip-path:url(#SVGID_00000072273864171278623760000002653793980836116645_);">
		<path class="st1" d="M213.39,202.19c-1.33,3.59-3.6,8.04-6.01,10.8l6.01-2.18l6.01,2.18
			C216.99,210.23,214.72,205.78,213.39,202.19"/>
	</g>
	<g style="clip-path:url(#SVGID_00000072273864171278623760000002653793980836116645_);">
		<rect x="204.15" y="271.83" class="st1" width="112.81" height="1.26"/>
	</g>
	<g style="clip-path:url(#SVGID_00000072273864171278623760000002653793980836116645_);">
		<path class="st1" d="M324.59,272.46c-3.59-1.33-8.04-3.6-10.8-6.01l2.18,6.01l-2.18,6.01C316.55,276.06,321,273.79,324.59,272.46"
			/>
	</g>
	<g style="clip-path:url(#SVGID_00000072273864171278623760000002653793980836116645_);">
		<path class="st1" d="M219.32,268.94c-0.52,0-0.98-0.01-1.39-0.02c-0.47-0.01-0.83-0.4-0.82-0.86c0.01-0.47,0.38-0.82,0.87-0.82
			c6.6,0.16,29.6-0.64,47.69-18.44c13.03-12.82,17.09-28.07,18.36-36.01c0.07-0.46,0.5-0.76,0.97-0.7c0.46,0.07,0.77,0.51,0.7,0.96
			c-1.3,8.15-5.47,23.78-18.84,36.95C249.39,267.18,227.51,268.94,219.32,268.94"/>
	</g>
	<g style="clip-path:url(#SVGID_00000072273864171278623760000002653793980836116645_);">
		<path class="st1" d="M279.32,312.29h-19.28c-1.81,0-3.28-1.47-3.28-3.28c0-1.81,1.47-3.28,3.28-3.28h19.28
			c1.81,0,3.28,1.47,3.28,3.28C282.59,310.82,281.13,312.29,279.32,312.29"/>
	</g>
	<g style="clip-path:url(#SVGID_00000072273864171278623760000002653793980836116645_);">
		<path class="st1" d="M297.26,327.08h-55.17c-2.58,0-4.68-2.1-4.68-4.68c0-2.58,2.1-4.68,4.68-4.68h55.17
			c2.58,0,4.68,2.1,4.68,4.68C301.94,324.98,299.84,327.08,297.26,327.08"/>
	</g>
	<g style="clip-path:url(#SVGID_00000072273864171278623760000002653793980836116645_);">
		<path class="st1" d="M350.35,182.88c2.9,0,5.26,2.36,5.26,5.26v99.97c0,2.9-2.36,5.26-5.26,5.26H189c-2.9,0-5.26-2.36-5.26-5.26
			v-99.97c0-2.9,2.36-5.26,5.26-5.26H350.35z M350.35,174.45H189c-7.56,0-13.68,6.13-13.68,13.68v99.97
			c0,7.56,6.13,13.68,13.68,13.68h161.35c7.56,0,13.68-6.13,13.68-13.68v-99.97C364.03,180.58,357.91,174.45,350.35,174.45"/>
	</g>
	<g style="clip-path:url(#SVGID_00000072273864171278623760000002653793980836116645_);">
		<path class="st1" d="M217.36,151.09c-2.21,0-4.02,1.64-4.33,3.76h-37.72v1.26h37.72c0.31,2.12,2.12,3.76,4.33,3.76
			c2.42,0,4.39-1.97,4.39-4.39S219.79,151.09,217.36,151.09 M217.36,158.61c-1.73,0-3.13-1.4-3.13-3.13c0-1.73,1.4-3.13,3.13-3.13
			s3.13,1.4,3.13,3.13C220.49,157.21,219.09,158.61,217.36,158.61"/>
	</g>
	<g style="clip-path:url(#SVGID_00000072273864171278623760000002653793980836116645_);">
		<path class="st1" d="M175.32,160.28v-21h24.1v-14.07c2.12-0.31,3.76-2.12,3.76-4.33c0-2.42-1.97-4.39-4.39-4.39
			c-2.42,0-4.39,1.97-4.39,4.39c0,2.21,1.64,4.02,3.76,4.33v12.81h-22.84v-3.67c0-1.89-1.67-3.42-3.71-3.42h-0.03v-14.76l12.99-8.36
			V89.04c-0.42-0.13-0.84-0.25-1.26-0.37v18.45l-12.99,8.36v15.45h-7.16v-14.76l12.99-8.36V87.03c-0.42-0.08-0.84-0.15-1.26-0.2
			v20.29l-12.99,8.36v15.45h-7.16v-14.76l12.99-8.36V86.17c-0.42-0.02-0.84-0.03-1.26-0.03v20.98l-12.99,8.36v15.45h-3.47v-7.75
			l-12.21-12.21c0.55-0.73,0.88-1.63,0.88-2.62c0-2.42-1.97-4.39-4.39-4.39c-2.42,0-4.39,1.97-4.39,4.39c0,2.42,1.97,4.39,4.39,4.39
			c0.98,0,1.88-0.34,2.61-0.88l11.84,11.84v7.23h-1.08c-2.06,0-3.72,1.53-3.72,3.42v1h-10.9l-8.21-8.21l-0.89,0.89l8.58,8.58h11.43
			v5.16h-29.05c-0.31-2.12-2.12-3.76-4.33-3.76c-2.42,0-4.39,1.97-4.39,4.39c0,2.42,1.97,4.39,4.39,4.39c2.21,0,4.02-1.64,4.33-3.76
			h29.05v10.22h-21.94c-0.31-2.12-2.12-3.76-4.33-3.76c-2.42,0-4.39,1.97-4.39,4.39c0,2.42,1.97,4.39,4.39,4.39
			c2.21,0,4.02-1.64,4.33-3.76h21.94v5.16h-9.18l-11.4,11.4v8.62c-2.12,0.31-3.76,2.12-3.76,4.33c0,2.42,1.97,4.39,4.39,4.39
			c2.42,0,4.39-1.97,4.39-4.39c0-2.21-1.64-4.02-3.76-4.33v-8.09l10.66-10.66h8.66v0.98c0,1.9,1.67,3.45,3.72,3.45h4.63v21.3
			l-12.97,8.37v15.7c0.4,0.19,0.84,0.37,1.26,0.54v-15.55l12.97-8.37v-21.99h7.16v21.3l-12.97,8.37v18.72
			c0.12,0.03,0.25,0.07,0.37,0.1c0.3,0.08,0.59,0.17,0.89,0.24v-18.37l12.97-8.37v-21.99h7.16v21.3l-12.97,8.37v20.51
			c0.42,0.07,0.84,0.12,1.26,0.17v-19.98l12.97-8.37v-21.99h1.21c2.04,0,3.71-1.55,3.71-3.45v-0.39h0.96h15.64l6.17,6.17h0.88h0.91
			l-7.43-7.43H175.32z M195.66,120.88c0-1.73,1.4-3.13,3.13-3.13c1.73,0,3.13,1.4,3.13,3.13c0,1.73-1.4,3.13-3.13,3.13
			C197.06,124.01,195.66,122.6,195.66,120.88 M134.27,111.48c-1.73,0-3.13-1.4-3.13-3.13c0-1.73,1.4-3.13,3.13-3.13
			s3.13,1.4,3.13,3.13C137.4,110.08,136,111.48,134.27,111.48 M127.11,184.03c0,1.73-1.4,3.13-3.13,3.13c-1.73,0-3.13-1.4-3.13-3.13
			s1.4-3.13,3.13-3.13C125.7,180.9,127.11,182.31,127.11,184.03 M152.49,140.09v6.66c0,0.99-0.81,1.79-1.79,1.79
			c-0.98,0-1.77-0.79-1.77-1.79v-6.66c0-0.98,0.79-1.77,1.77-1.77C151.68,138.32,152.49,139.11,152.49,140.09 M110.54,145.54
			c-1.73,0-3.13-1.4-3.13-3.13c0-1.73,1.4-3.13,3.13-3.13c1.73,0,3.13,1.4,3.13,3.13C113.67,144.13,112.27,145.54,110.54,145.54
			 M117.66,157.02c-1.73,0-3.13-1.4-3.13-3.13c0-1.73,1.4-3.13,3.13-3.13c1.73,0,3.13,1.4,3.13,3.13
			C120.79,155.62,119.38,157.02,117.66,157.02 M150.7,157.98c-0.98,0-1.77-0.79-1.77-1.79c0-0.81,0.56-1.47,1.3-1.67h0.94
			c0.75,0.21,1.32,0.86,1.32,1.67C152.49,157.19,151.68,157.98,150.7,157.98"/>
	</g>
	<g style="clip-path:url(#SVGID_00000072273864171278623760000002653793980836116645_);">
		<path class="st1" d="M203.46,147.52h-28.14v1.26h28.66l9.42-9.42v-8.62c2.12-0.31,3.76-2.12,3.76-4.33c0-2.42-1.97-4.39-4.39-4.39
			c-2.42,0-4.39,1.97-4.39,4.39c0,2.21,1.64,4.02,3.76,4.33v8.09L203.46,147.52z M209.64,126.42c0-1.73,1.4-3.13,3.13-3.13
			c1.73,0,3.13,1.4,3.13,3.13c0,1.73-1.4,3.13-3.13,3.13C211.05,129.55,209.64,128.15,209.64,126.42"/>
	</g>
	<g style="clip-path:url(#SVGID_00000072273864171278623760000002653793980836116645_);">
		<path class="st1" d="M102.63,95.66c-0.41-0.34-0.82-0.63-1.23-0.88c-0.41-0.25-0.81-0.47-1.22-0.66l1.21,9.7
			c1.46,0.26,2.62-0.13,3.47-1.16c0.81-0.98,1-2.08,0.59-3.32C105.06,98.11,104.11,96.88,102.63,95.66"/>
	</g>
	<g style="clip-path:url(#SVGID_00000072273864171278623760000002653793980836116645_);">
		<path class="st1" d="M106.38,83.34c-0.99,0.84-1.39,1.9-1.2,3.19c0.19,1.28,0.9,2.66,2.14,4.11c0.69,0.81,1.44,1.49,2.24,2.04
			l0.52-9.8c-0.7-0.28-1.36-0.38-1.98-0.31C107.48,82.63,106.91,82.89,106.38,83.34"/>
	</g>
	<g style="clip-path:url(#SVGID_00000072273864171278623760000002653793980836116645_);">
		<path class="st1" d="M91.27,193.39c-0.37,0.3-0.71,0.62-1.02,0.94l9.57,2.01c0.72-1.3,0.73-2.52,0.03-3.66
			c-0.67-1.08-1.65-1.63-2.95-1.64c-1.3-0.02-2.77,0.48-4.4,1.48C92.05,192.8,91.64,193.09,91.27,193.39"/>
	</g>
	<g style="clip-path:url(#SVGID_00000072273864171278623760000002653793980836116645_);">
		<path class="st1" d="M96.9,93.75c-0.6,0.18-1.12,0.53-1.56,1.07c-0.82,1-1.03,2.12-0.61,3.35s1.36,2.45,2.84,3.67
			c0.82,0.68,1.68,1.22,2.56,1.61l-1.22-9.74C98.17,93.56,97.5,93.58,96.9,93.75"/>
	</g>
	<g style="clip-path:url(#SVGID_00000072273864171278623760000002653793980836116645_);">
		<path class="st1" d="M113.42,85.46c-0.34-0.4-0.69-0.77-1.05-1.09c-0.36-0.32-0.72-0.61-1.09-0.86l-0.52,9.77
			c1.4,0.52,2.6,0.34,3.62-0.53c0.97-0.82,1.36-1.88,1.17-3.16C115.37,88.29,114.66,86.91,113.42,85.46"/>
	</g>
	<g style="clip-path:url(#SVGID_00000072273864171278623760000002653793980836116645_);">
		<path class="st1" d="M88.61,140.04c0.2-1.25-0.19-2.3-1.17-3.17c-0.98-0.86-2.41-1.44-4.3-1.74c-0.53-0.08-1.03-0.13-1.5-0.14
			c-0.48-0.01-0.94,0.01-1.39,0.05l5.95,7.76C87.59,142.28,88.39,141.36,88.61,140.04"/>
	</g>
	<g style="clip-path:url(#SVGID_00000072273864171278623760000002653793980836116645_);">
		<path class="st1" d="M166.57,61.84c-0.52-0.36-1.12-0.54-1.81-0.54c-1.3-0.01-2.29,0.54-2.98,1.64c-0.69,1.1-1.04,2.6-1.05,4.52
			c-0.01,1.07,0.12,2.07,0.37,3l6.78-7.09C167.52,62.7,167.09,62.19,166.57,61.84"/>
	</g>
	<g style="clip-path:url(#SVGID_00000072273864171278623760000002653793980836116645_);">
		<path class="st1" d="M124.96,76.09c-0.3-0.38-0.6-0.73-0.92-1.05l-2.24,9.52c1.28,0.75,2.5,0.8,3.66,0.12
			c1.09-0.64,1.67-1.61,1.72-2.91c0.05-1.3-0.41-2.78-1.37-4.43C125.54,76.88,125.25,76.46,124.96,76.09"/>
	</g>
	<g style="clip-path:url(#SVGID_00000072273864171278623760000002653793980836116645_);">
		<path class="st1" d="M121.09,73.55c-0.63-0.05-1.24,0.1-1.84,0.45c-1.12,0.65-1.7,1.63-1.74,2.92c-0.04,1.3,0.42,2.77,1.38,4.43
			c0.54,0.92,1.15,1.72,1.84,2.4l2.26-9.55C122.35,73.82,121.72,73.6,121.09,73.55"/>
	</g>
	<g style="clip-path:url(#SVGID_00000072273864171278623760000002653793980836116645_);">
		<path class="st1" d="M87.13,171.55l-8.32-5.21c-0.58,0.48-0.99,1.01-1.23,1.58c-0.24,0.58-0.3,1.21-0.16,1.89
			c0.26,1.27,0.99,2.13,2.21,2.59c1.21,0.46,2.76,0.5,4.64,0.12C85.31,172.31,86.26,171.99,87.13,171.55"/>
	</g>
	<g style="clip-path:url(#SVGID_00000072273864171278623760000002653793980836116645_);">
		<path class="st1" d="M88.83,197.32c-0.03,0.63,0.14,1.24,0.5,1.82c0.68,1.1,1.67,1.66,2.97,1.67c1.3,0.01,2.76-0.49,4.39-1.49
			c0.91-0.56,1.7-1.19,2.36-1.9l-9.6-2.02C89.06,196.06,88.86,196.7,88.83,197.32"/>
	</g>
	<g style="clip-path:url(#SVGID_00000072273864171278623760000002653793980836116645_);">
		<path class="st1" d="M81.88,143.02c1.06,0.17,2.06,0.2,3.03,0.09l-5.97-7.78c-0.71,0.24-1.28,0.59-1.71,1.05
			c-0.43,0.45-0.7,1.03-0.81,1.71c-0.2,1.28,0.18,2.35,1.16,3.2C78.55,142.14,79.99,142.72,81.88,143.02"/>
	</g>
	<g style="clip-path:url(#SVGID_00000072273864171278623760000002653793980836116645_);">
		<path class="st1" d="M89.53,167.37c-0.25-1.24-0.98-2.09-2.2-2.56c-1.22-0.46-2.76-0.51-4.64-0.13c-0.52,0.11-1,0.24-1.46,0.39
			c-0.45,0.16-0.88,0.34-1.28,0.53l8.29,5.19C89.36,169.83,89.79,168.69,89.53,167.37"/>
	</g>
	<g style="clip-path:url(#SVGID_00000072273864171278623760000002653793980836116645_);">
		<path class="st1" d="M109.63,221.02c0.19,0.6,0.56,1.11,1.11,1.54c1.02,0.8,2.14,0.98,3.36,0.53c1.22-0.44,2.42-1.42,3.6-2.93
			c0.66-0.84,1.17-1.71,1.55-2.61l-9.7,1.46C109.41,219.75,109.44,220.42,109.63,221.02"/>
	</g>
	<g style="clip-path:url(#SVGID_00000072273864171278623760000002653793980836116645_);">
		<path class="st1" d="M119.59,216.27c0.22-1.47-0.19-2.62-1.25-3.44c-1-0.78-2.11-0.95-3.33-0.51c-1.23,0.44-2.43,1.41-3.61,2.92
			c-0.33,0.42-0.61,0.83-0.85,1.25c-0.24,0.41-0.45,0.83-0.63,1.24L119.59,216.27z"/>
	</g>
	<g style="clip-path:url(#SVGID_00000072273864171278623760000002653793980836116645_);">
		<path class="st1" d="M168.36,64.62l-6.76,7.07c0.72,1.3,1.75,1.95,3.09,1.96c1.27,0.01,2.25-0.54,2.95-1.64
			c0.7-1.1,1.05-2.6,1.06-4.52c0-0.53-0.03-1.03-0.09-1.51C168.56,65.51,168.47,65.05,168.36,64.62"/>
	</g>
	<g style="clip-path:url(#SVGID_00000072273864171278623760000002653793980836116645_);">
		<path class="st1" d="M243.94,141.43c1.19,0.53,2.73,0.65,4.63,0.36c0.53-0.08,1.02-0.19,1.48-0.32c0.46-0.13,0.89-0.29,1.31-0.47
			l-8.02-5.6c-1.17,0.91-1.66,2.03-1.46,3.36C242.06,140.02,242.75,140.91,243.94,141.43"/>
	</g>
	<g style="clip-path:url(#SVGID_00000072273864171278623760000002653793980836116645_);">
		<path class="st1" d="M242.87,152.47c-0.04,1.27,0.48,2.26,1.56,2.99c1.08,0.73,2.57,1.12,4.49,1.18c0.53,0.02,1.03,0,1.51-0.05
			c0.48-0.05,0.93-0.13,1.37-0.23l-6.9-6.93C243.59,150.12,242.91,151.13,242.87,152.47"/>
	</g>
	<g style="clip-path:url(#SVGID_00000072273864171278623760000002653793980836116645_);">
		<path class="st1" d="M253.83,138.81c0.27-0.57,0.36-1.19,0.25-1.88c-0.19-1.28-0.88-2.18-2.07-2.7c-1.19-0.52-2.73-0.63-4.63-0.35
			c-1.05,0.16-2.03,0.43-2.91,0.83l8.04,5.62C253.12,139.88,253.56,139.38,253.83,138.81"/>
	</g>
	<g style="clip-path:url(#SVGID_00000072273864171278623760000002653793980836116645_);">
		<path class="st1" d="M293.38,160.12l-23.4-6.74c-2.49-0.72-4.25-2.97-4.33-5.56c-0.07-1.68-0.17-3.39-0.3-5.11
			c-0.15-1.7-0.34-3.4-0.56-5.07c-0.35-2.58,0.99-5.09,3.34-6.22l21.94-10.58c2.88-1.4,4.18-4.8,2.93-7.75l-11.2-26.62
			c-1.25-2.95-4.58-4.41-7.6-3.32l-22.88,8.29c-2.44,0.89-5.17,0.12-6.77-1.94c-2.11-2.7-4.33-5.27-6.69-7.73
			c-1.8-1.89-2.17-4.7-0.94-6.99l11.52-21.45c1.52-2.81,0.56-6.34-2.19-7.99l-24.7-14.95c-2.75-1.67-6.3-0.88-8.1,1.77L199.8,52.32
			c-1.45,2.16-4.13,3.12-6.62,2.41c-3.27-0.94-6.59-1.72-9.97-2.33c-2.54-0.45-4.52-2.53-4.87-5.11l-3.29-24.11
			c-0.42-3.17-3.27-5.46-6.45-5.17l-28.8,2.43c-3.18,0.27-5.61,3-5.49,6.2l0.81,24.31c0.08,2.59-1.5,4.97-3.94,5.85
			c-3.24,1.16-6.39,2.49-9.45,3.96c-2.34,1.13-5.12,0.62-6.93-1.26L97.98,41.94c-2.22-2.33-5.86-2.49-8.29-0.4L67.84,60.43
			c-2.43,2.09-2.78,5.71-0.81,8.24l14.96,19.21c1.6,2.06,1.7,4.9,0.24,7.04c-1.9,2.83-3.67,5.75-5.29,8.76
			c-1.23,2.29-3.79,3.52-6.35,3.05l-23.94-4.35c-3.15-0.57-6.2,1.43-6.94,4.55l-6.59,28.14c-0.72,3.12,1.11,6.25,4.2,7.14
			l23.42,6.76c2.49,0.72,4.25,2.97,4.33,5.56c0.07,1.68,0.17,3.39,0.3,5.09c0.15,1.72,0.34,3.4,0.56,5.09
			c0.35,2.58-0.99,5.07-3.34,6.2l-21.95,10.58c-2.88,1.4-4.16,4.8-2.93,7.77l11.22,26.6c1.25,2.95,4.58,4.41,7.6,3.32l22.88-8.29
			c2.44-0.89,5.17-0.1,6.77,1.94c2.11,2.7,4.33,5.27,6.69,7.73c1.8,1.87,2.17,4.68,0.94,6.98L82.28,249c-1.52,2.83-0.56,6.35,2.19,8
			l24.7,14.95c2.75,1.65,6.3,0.88,8.1-1.79l13.63-20.15c1.47-2.16,4.14-3.13,6.64-2.41c3.25,0.94,6.57,1.72,9.94,2.33
			c2.56,0.45,4.53,2.53,4.89,5.11l3.27,24.11c0.44,3.18,3.29,5.46,6.47,5.19l6.47-0.54v-64.33c-5.56,0.29-10.99-0.12-16.23-1.13
			c-1.74-0.34-3.44-0.74-5.14-1.21c-12.3-3.37-23.3-10.13-31.85-19.26c-1.21-1.3-2.36-2.61-3.45-3.99
			c-7.67-9.59-12.86-21.31-14.44-34.32c-0.12-0.88-0.2-1.74-0.29-2.61c-0.07-0.88-0.12-1.75-0.17-2.63
			c-0.61-13.08,2.51-25.53,8.48-36.26c0.84-1.55,1.77-3.03,2.73-4.52c6.89-10.45,16.63-18.96,28.17-24.35
			c1.58-0.76,3.2-1.43,4.85-2.04c5.75-2.17,11.9-3.59,18.35-4.14c6.44-0.54,12.72-0.17,18.77,0.99c1.72,0.34,3.44,0.72,5.12,1.21
			c12.32,3.37,23.32,10.13,31.86,19.28c1.2,1.28,2.34,2.61,3.44,3.99c7.67,9.57,12.86,21.33,14.44,34.32
			c0.12,0.86,0.2,1.74,0.29,2.61c0.07,0.88,0.12,1.75,0.17,2.63c0.32,6.77-0.37,13.38-1.95,19.66h65.75l0.1-0.42
			C298.3,164.17,296.46,161.02,293.38,160.12 M153.18,226.75l6.13,0.83l-0.17,1.28l-2.31-0.3l-1.31,9.74
			c0.17-0.27,0.42-0.57,0.76-0.86c0.32-0.3,0.71-0.57,1.13-0.81c0.42-0.22,0.88-0.4,1.36-0.52c0.49-0.13,0.98-0.17,1.48-0.1
			l-0.22,1.55c-0.44-0.05-0.93,0.02-1.48,0.24c-0.54,0.2-1.06,0.49-1.55,0.86c-0.49,0.39-0.91,0.83-1.28,1.33
			c-0.35,0.51-0.57,1.03-0.64,1.57l-1.52-0.2l1.74-12.99l-2.29-0.32L153.18,226.75z M139.68,224.66l0.4-1.23l5.88,1.89l-0.39,1.23
			l-2.22-0.72l-3,9.37c0.2-0.24,0.51-0.49,0.89-0.72c0.37-0.24,0.79-0.42,1.25-0.57c0.45-0.15,0.94-0.25,1.45-0.29
			c0.51-0.05,0.99,0.02,1.47,0.17l-0.49,1.48c-0.42-0.13-0.93-0.13-1.5-0.03c-0.57,0.1-1.13,0.3-1.68,0.59
			c-0.54,0.27-1.04,0.64-1.48,1.08s-0.74,0.91-0.91,1.43l-1.47-0.47l4.01-12.49L139.68,224.66z M79.39,121.56l12.38,4.31l0.76-2.19
			l1.23,0.42l-2.04,5.85l-1.23-0.42l0.78-2.21l-9.28-3.24c0.24,0.22,0.47,0.52,0.69,0.91c0.24,0.39,0.42,0.81,0.56,1.26
			c0.13,0.47,0.22,0.94,0.25,1.45c0.03,0.51-0.05,0.99-0.2,1.47l-1.48-0.51c0.15-0.44,0.17-0.93,0.08-1.52
			c-0.1-0.57-0.29-1.15-0.56-1.7c-0.25-0.54-0.61-1.04-1.03-1.5c-0.44-0.45-0.91-0.78-1.42-0.94L79.39,121.56z M75.13,137.88
			c0.17-0.98,0.51-1.79,1.03-2.41c0.52-0.62,1.15-1.11,1.9-1.43c0.76-0.34,1.58-0.52,2.51-0.57c0.93-0.05,1.85,0,2.8,0.13
			c0.96,0.17,1.87,0.4,2.71,0.74c0.86,0.34,1.6,0.78,2.21,1.31c0.61,0.54,1.06,1.18,1.36,1.94c0.29,0.76,0.37,1.63,0.2,2.65
			c-0.15,0.99-0.49,1.8-1.01,2.43c-0.52,0.64-1.16,1.11-1.9,1.43c-0.74,0.32-1.58,0.52-2.49,0.57c-0.93,0.05-1.85,0-2.81-0.15
			c-0.94-0.15-1.85-0.4-2.7-0.74c-0.86-0.35-1.6-0.79-2.21-1.33c-0.62-0.54-1.08-1.2-1.38-1.95
			C75.05,139.74,74.98,138.88,75.13,137.88 M74.44,153.23l13.11-0.27l-0.05-2.31l1.3-0.03l0.12,6.18l-1.28,0.03l-0.05-2.34
			l-9.84,0.2c0.3,0.13,0.64,0.34,0.98,0.61c0.35,0.29,0.67,0.62,0.96,0.99c0.29,0.39,0.54,0.83,0.74,1.28
			c0.2,0.45,0.3,0.94,0.32,1.45l-1.57,0.03c-0.02-0.45-0.17-0.93-0.45-1.45c-0.29-0.51-0.66-0.98-1.1-1.4
			c-0.45-0.42-0.94-0.78-1.5-1.04c-0.56-0.29-1.11-0.42-1.65-0.4L74.44,153.23z M79.24,173.77c-0.78-0.29-1.43-0.72-1.97-1.35
			c-0.56-0.61-0.93-1.4-1.11-2.36c-0.2-0.98-0.17-1.85,0.1-2.63c0.27-0.76,0.71-1.43,1.3-2.01s1.3-1.04,2.14-1.42
			c0.84-0.37,1.74-0.66,2.68-0.84c0.96-0.19,1.89-0.27,2.8-0.25c0.93,0.02,1.77,0.17,2.53,0.45c0.76,0.3,1.4,0.74,1.95,1.35
			c0.54,0.61,0.91,1.42,1.11,2.39c0.2,0.99,0.17,1.87-0.1,2.65c-0.27,0.78-0.69,1.43-1.28,2.01c-0.59,0.56-1.3,1.03-2.14,1.4
			c-0.84,0.37-1.74,0.64-2.68,0.84c-0.94,0.19-1.89,0.27-2.8,0.24C80.84,174.23,80,174.06,79.24,173.77 M86.35,187.29
			c-0.45-0.39-0.96-0.69-1.52-0.94c-0.57-0.24-1.16-0.4-1.79-0.47c-0.61-0.07-1.18,0-1.68,0.2l-0.56-1.43l12.22-4.79l-0.84-2.16
			l1.2-0.47l2.26,5.76l-1.2,0.47l-0.86-2.17l-9.15,3.59c0.32,0.02,0.69,0.1,1.11,0.24c0.44,0.13,0.84,0.34,1.25,0.61
			c0.4,0.25,0.79,0.57,1.15,0.94c0.34,0.35,0.61,0.78,0.79,1.25l-1.47,0.56C87.11,188.06,86.79,187.66,86.35,187.29 M127.09,218.95
			l0.61-1.15l5.46,2.9l-0.61,1.15l-2.06-1.1l-4.62,8.69c0.27-0.2,0.59-0.39,1.01-0.56c0.42-0.17,0.86-0.29,1.33-0.35
			c0.49-0.07,0.98-0.08,1.48-0.03c0.49,0.05,0.96,0.19,1.42,0.44l-0.74,1.38c-0.39-0.22-0.89-0.32-1.47-0.32
			c-0.59,0.02-1.18,0.1-1.77,0.29c-0.59,0.19-1.13,0.45-1.65,0.79c-0.51,0.35-0.89,0.78-1.15,1.26l-1.36-0.72l6.15-11.59
			L127.09,218.95z M112.15,212.27c0.71-0.59,1.45-1.01,2.21-1.28c0.76-0.27,1.55-0.35,2.36-0.25c0.81,0.1,1.62,0.47,2.41,1.1
			c0.79,0.61,1.35,1.31,1.63,2.07c0.3,0.76,0.4,1.55,0.34,2.34c-0.08,0.81-0.32,1.63-0.71,2.46c-0.4,0.83-0.91,1.62-1.5,2.38
			c-0.59,0.76-1.25,1.43-1.97,2.02c-0.71,0.57-1.45,1.01-2.22,1.28c-0.76,0.29-1.55,0.37-2.36,0.25c-0.81-0.1-1.62-0.45-2.39-1.06
			c-0.78-0.62-1.33-1.3-1.62-2.07c-0.3-0.76-0.4-1.55-0.34-2.36c0.08-0.83,0.32-1.63,0.72-2.48c0.39-0.83,0.88-1.62,1.48-2.38
			C110.78,213.54,111.44,212.86,112.15,212.27 M106.89,200.61l4.13,4.6l-0.96,0.86l-1.55-1.74l-7.33,6.57
			c0.3-0.1,0.69-0.17,1.13-0.19c0.45-0.02,0.91,0.03,1.38,0.13c0.47,0.1,0.93,0.27,1.38,0.49c0.45,0.22,0.86,0.51,1.18,0.89
			l-1.16,1.04c-0.3-0.34-0.72-0.61-1.28-0.81c-0.54-0.19-1.13-0.3-1.74-0.34c-0.62-0.03-1.23,0.02-1.84,0.17s-1.1,0.42-1.52,0.78
			l-1.01-1.13l9.77-8.76l-1.55-1.72L106.89,200.61z M99.06,190.15c0.71,0.39,1.35,1.01,1.87,1.87c0.52,0.86,0.79,1.7,0.81,2.51
			c0.02,0.83-0.15,1.58-0.51,2.33c-0.35,0.72-0.86,1.42-1.53,2.06c-0.66,0.62-1.4,1.2-2.22,1.7c-0.81,0.51-1.67,0.91-2.54,1.21
			c-0.86,0.29-1.7,0.44-2.53,0.42c-0.81,0-1.58-0.2-2.31-0.57c-0.72-0.39-1.35-0.99-1.87-1.85c-0.52-0.84-0.78-1.67-0.79-2.49
			c-0.02-0.81,0.15-1.58,0.51-2.33c0.37-0.74,0.88-1.43,1.53-2.07c0.66-0.64,1.4-1.21,2.22-1.72c0.83-0.51,1.67-0.91,2.54-1.21
			c0.86-0.3,1.7-0.44,2.51-0.42C97.56,189.58,98.33,189.78,99.06,190.15 M96.65,117.29l-1.13-0.64l1.13-2.04l-8.58-4.82
			c0.2,0.27,0.39,0.61,0.54,1.03c0.15,0.42,0.27,0.86,0.32,1.35c0.05,0.47,0.05,0.96,0,1.47c-0.07,0.51-0.22,0.98-0.47,1.42
			l-1.36-0.78c0.22-0.39,0.34-0.88,0.34-1.47c0.02-0.59-0.07-1.18-0.24-1.77c-0.15-0.59-0.42-1.15-0.76-1.67
			c-0.34-0.52-0.74-0.91-1.21-1.18l0.74-1.33l11.44,6.42l1.13-2.02l1.13,0.64L96.65,117.29z M106.99,101.08
			c-0.12,0.81-0.51,1.6-1.15,2.39c-0.64,0.78-1.35,1.3-2.11,1.58c-0.78,0.27-1.57,0.37-2.36,0.27c-0.81-0.1-1.62-0.35-2.44-0.78
			c-0.81-0.42-1.6-0.94-2.34-1.55c-0.74-0.61-1.4-1.28-1.97-2.02c-0.56-0.72-0.96-1.47-1.23-2.24c-0.25-0.78-0.32-1.57-0.2-2.38
			c0.13-0.81,0.51-1.6,1.15-2.36c0.62-0.78,1.33-1.3,2.09-1.58c0.78-0.27,1.57-0.37,2.38-0.27c0.83,0.1,1.63,0.37,2.46,0.78
			c0.83,0.42,1.6,0.94,2.34,1.55c0.74,0.61,1.4,1.28,1.97,2.01c0.57,0.72,0.98,1.47,1.23,2.24
			C107.06,99.5,107.13,100.28,106.99,101.08 M116.75,91.57c-0.27,0.78-0.78,1.48-1.55,2.14c-0.78,0.66-1.55,1.04-2.36,1.2
			c-0.81,0.13-1.6,0.08-2.38-0.15c-0.78-0.24-1.53-0.64-2.26-1.2s-1.42-1.2-2.04-1.94c-0.62-0.74-1.15-1.52-1.57-2.33
			c-0.42-0.83-0.69-1.63-0.81-2.44c-0.12-0.81-0.05-1.6,0.22-2.38c0.27-0.78,0.78-1.48,1.53-2.12s1.53-1.03,2.34-1.16
			c0.81-0.15,1.6-0.1,2.39,0.15c0.78,0.24,1.53,0.64,2.27,1.2c0.72,0.56,1.4,1.2,2.04,1.92c0.62,0.74,1.15,1.52,1.58,2.33
			c0.42,0.81,0.69,1.62,0.81,2.43C117.1,90.01,117.02,90.79,116.75,91.57 M128,83.95c-0.4,0.71-1.03,1.31-1.9,1.84
			c-0.88,0.51-1.72,0.74-2.54,0.74c-0.81,0-1.58-0.2-2.31-0.57c-0.72-0.37-1.38-0.89-2.01-1.57c-0.62-0.67-1.18-1.43-1.67-2.27
			c-0.47-0.83-0.86-1.68-1.13-2.56c-0.27-0.89-0.4-1.74-0.37-2.54c0.03-0.83,0.25-1.58,0.64-2.29c0.4-0.72,1.03-1.33,1.89-1.82
			c0.86-0.51,1.7-0.76,2.51-0.74c0.83,0,1.6,0.19,2.33,0.57c0.72,0.37,1.4,0.89,2.02,1.58c0.62,0.67,1.18,1.42,1.67,2.26
			c0.49,0.83,0.86,1.68,1.15,2.56s0.4,1.72,0.37,2.53C128.61,82.47,128.41,83.24,128,83.95 M135.25,80.71l-0.44-1.21l2.19-0.79
			l-3.37-9.25c-0.02,0.34-0.1,0.71-0.27,1.13c-0.15,0.42-0.35,0.83-0.62,1.23c-0.27,0.39-0.59,0.76-0.96,1.11
			c-0.39,0.34-0.81,0.59-1.28,0.76l-0.52-1.47c0.42-0.15,0.83-0.45,1.21-0.89c0.39-0.44,0.71-0.94,0.96-1.5
			c0.27-0.56,0.44-1.15,0.52-1.75c0.08-0.62,0.03-1.18-0.17-1.7l1.45-0.52l4.48,12.33l2.17-0.79l0.45,1.21L135.25,80.71z
			 M148.17,76.52l-0.22-1.28l2.29-0.4l-1.68-9.69c-0.08,0.32-0.24,0.67-0.45,1.06c-0.22,0.39-0.51,0.76-0.84,1.1
			c-0.34,0.35-0.72,0.66-1.15,0.93c-0.42,0.27-0.89,0.45-1.38,0.54l-0.27-1.55c0.44-0.08,0.89-0.3,1.35-0.66
			c0.47-0.37,0.88-0.81,1.23-1.31c0.35-0.49,0.62-1.04,0.81-1.63c0.19-0.59,0.24-1.16,0.13-1.7l1.52-0.25l2.26,12.92l2.29-0.4
			l0.22,1.26L148.17,76.52z M169.94,70.28c-0.2,0.89-0.52,1.68-0.96,2.38c-0.44,0.67-1.01,1.23-1.72,1.63
			c-0.71,0.42-1.57,0.62-2.56,0.62c-1.01-0.02-1.87-0.22-2.58-0.64c-0.69-0.42-1.26-0.98-1.7-1.67c-0.44-0.67-0.74-1.47-0.93-2.38
			c-0.2-0.89-0.29-1.82-0.29-2.8c0-0.96,0.1-1.89,0.32-2.78c0.2-0.91,0.54-1.7,0.98-2.39c0.44-0.69,1.01-1.23,1.7-1.65
			c0.71-0.4,1.57-0.61,2.56-0.61s1.84,0.22,2.53,0.64c0.71,0.42,1.28,0.98,1.72,1.67c0.44,0.69,0.76,1.48,0.94,2.39
			c0.2,0.89,0.29,1.82,0.29,2.78C170.25,68.46,170.14,69.39,169.94,70.28 M181.45,75.04l-0.24,1.26l-6.08-1.13l0.24-1.26l2.29,0.42
			l1.79-9.67c-0.19,0.27-0.45,0.56-0.79,0.84c-0.35,0.27-0.74,0.52-1.18,0.72c-0.44,0.22-0.89,0.37-1.38,0.47
			c-0.51,0.1-0.99,0.12-1.48,0.02l0.29-1.53c0.44,0.07,0.93,0.03,1.5-0.15c0.56-0.19,1.08-0.45,1.58-0.79
			c0.51-0.35,0.96-0.78,1.33-1.26c0.39-0.49,0.62-1.01,0.72-1.55l1.52,0.29l-2.39,12.91L181.45,75.04z M199.73,71.72
			c-0.13,0.91-0.37,1.82-0.71,2.73c-0.34,0.89-0.76,1.74-1.26,2.49c-0.51,0.78-1.08,1.4-1.72,1.89c-0.66,0.49-1.38,0.81-2.19,0.94
			c-0.79,0.15-1.67,0.03-2.61-0.32s-1.68-0.84-2.19-1.48c-0.51-0.64-0.84-1.35-1.01-2.16c-0.17-0.79-0.19-1.63-0.05-2.54
			c0.13-0.91,0.37-1.82,0.71-2.73c0.34-0.89,0.76-1.74,1.28-2.49c0.51-0.78,1.08-1.4,1.74-1.9c0.64-0.49,1.38-0.81,2.17-0.94
			c0.81-0.15,1.68-0.03,2.61,0.3c0.93,0.35,1.65,0.84,2.16,1.48c0.51,0.64,0.86,1.36,1.03,2.17
			C199.85,69.95,199.87,70.81,199.73,71.72 M206.89,85.38l-0.66,1.11l-5.31-3.15l0.66-1.11l2.01,1.18l5.02-8.44
			c-0.27,0.19-0.61,0.35-1.03,0.51c-0.42,0.13-0.88,0.24-1.35,0.29c-0.49,0.03-0.98,0.03-1.48-0.05c-0.49-0.07-0.96-0.24-1.38-0.49
			l0.79-1.35c0.39,0.22,0.88,0.35,1.47,0.37c0.57,0.03,1.18-0.03,1.77-0.19c0.59-0.15,1.16-0.39,1.68-0.72
			c0.52-0.32,0.93-0.72,1.21-1.2l1.31,0.79L204.9,84.2L206.89,85.38z M217.86,93.74L217,94.72l-4.67-4.04l0.84-0.98l1.77,1.52
			l6.44-7.43c-0.3,0.13-0.67,0.24-1.11,0.3c-0.44,0.08-0.91,0.1-1.38,0.05c-0.49-0.03-0.96-0.13-1.45-0.3
			c-0.47-0.15-0.91-0.4-1.28-0.72l1.03-1.2c0.34,0.3,0.79,0.51,1.36,0.64c0.57,0.12,1.16,0.15,1.79,0.12
			c0.61-0.05,1.2-0.19,1.79-0.42c0.57-0.22,1.04-0.54,1.4-0.96l1.16,1.01l-8.59,9.92L217.86,93.74z M226.13,104.07
			c-0.76-0.29-1.47-0.81-2.11-1.6c-0.62-0.78-0.99-1.58-1.13-2.39c-0.12-0.81-0.03-1.58,0.22-2.36c0.25-0.78,0.67-1.52,1.25-2.24
			c0.57-0.71,1.23-1.36,1.99-1.97s1.53-1.11,2.36-1.52c0.84-0.4,1.65-0.66,2.46-0.76c0.83-0.1,1.6,0,2.38,0.29
			c0.76,0.29,1.45,0.81,2.07,1.58c0.64,0.78,1.01,1.57,1.13,2.38c0.12,0.81,0.05,1.6-0.22,2.38c-0.25,0.78-0.67,1.53-1.25,2.24
			c-0.57,0.72-1.23,1.38-1.99,1.99c-0.74,0.61-1.53,1.11-2.36,1.53c-0.83,0.4-1.63,0.66-2.44,0.76
			C227.68,104.45,226.91,104.35,226.13,104.07 M233.4,116.15l-2.97-5.43l1.13-0.62l1.11,2.04l8.63-4.72c-0.32,0.03-0.71,0-1.15-0.08
			c-0.44-0.1-0.88-0.24-1.31-0.45c-0.42-0.2-0.84-0.45-1.23-0.78c-0.4-0.32-0.71-0.69-0.96-1.15l1.38-0.74
			c0.22,0.39,0.57,0.74,1.06,1.06c0.49,0.32,1.03,0.56,1.62,0.74c0.59,0.17,1.2,0.24,1.82,0.24c0.62-0.02,1.18-0.15,1.65-0.42
			l0.74,1.35l-11.51,6.3l1.11,2.04L233.4,116.15z M238.5,128.7l-1.97-5.86l1.21-0.4l0.74,2.21l9.33-3.13
			c-0.34-0.03-0.71-0.13-1.11-0.3c-0.42-0.15-0.83-0.37-1.21-0.66c-0.4-0.29-0.76-0.61-1.1-0.99c-0.32-0.39-0.57-0.81-0.72-1.28
			l1.48-0.51c0.13,0.42,0.42,0.84,0.86,1.25c0.42,0.39,0.91,0.72,1.47,1.01c0.56,0.27,1.13,0.45,1.75,0.54
			c0.61,0.1,1.18,0.07,1.68-0.1l0.49,1.45l-12.43,4.18l0.74,2.19L238.5,128.7z M240.86,136.32c0.3-0.76,0.76-1.4,1.36-1.94
			c0.62-0.52,1.35-0.96,2.21-1.28c0.86-0.34,1.77-0.56,2.73-0.71c0.94-0.13,1.89-0.19,2.81-0.1c0.91,0.07,1.74,0.27,2.49,0.59
			c0.74,0.32,1.38,0.81,1.89,1.43c0.52,0.64,0.86,1.45,1.01,2.43c0.13,0.99,0.07,1.85-0.25,2.61c-0.3,0.76-0.76,1.42-1.38,1.95
			c-0.62,0.54-1.36,0.96-2.22,1.3s-1.75,0.57-2.71,0.71c-0.96,0.15-1.89,0.19-2.81,0.12c-0.91-0.07-1.74-0.25-2.48-0.59
			c-0.74-0.32-1.38-0.81-1.89-1.43c-0.52-0.64-0.86-1.45-0.99-2.44C240.47,137.95,240.54,137.07,240.86,136.32 M255.81,155.41
			c-0.44,0.69-1.01,1.25-1.72,1.67c-0.71,0.42-1.5,0.71-2.41,0.89c-0.89,0.17-1.84,0.24-2.8,0.2c-0.96-0.02-1.89-0.15-2.78-0.37
			c-0.89-0.24-1.68-0.57-2.34-1.03c-0.67-0.45-1.21-1.04-1.6-1.75c-0.4-0.71-0.59-1.58-0.56-2.58c0.03-1.01,0.27-1.87,0.71-2.56
			c0.44-0.69,0.99-1.23,1.7-1.65c0.69-0.42,1.5-0.71,2.39-0.88c0.91-0.17,1.84-0.25,2.8-0.22c0.98,0.03,1.9,0.17,2.8,0.39
			c0.88,0.24,1.67,0.59,2.34,1.04c0.69,0.45,1.21,1.03,1.62,1.75c0.39,0.71,0.57,1.57,0.54,2.56
			C256.48,153.87,256.24,154.72,255.81,155.41"/>
	</g>
	<g style="clip-path:url(#SVGID_00000072273864171278623760000002653793980836116645_);">
		<path class="st1" d="M235.35,95.66c-0.05-0.63-0.29-1.21-0.73-1.75c-0.81-1.01-1.87-1.43-3.15-1.27
			c-1.29,0.16-2.68,0.84-4.16,2.04c-0.83,0.67-1.53,1.4-2.09,2.19l9.78,0.77C235.28,96.94,235.41,96.28,235.35,95.66"/>
	</g>
	<g style="clip-path:url(#SVGID_00000072273864171278623760000002653793980836116645_);">
		<path class="st1" d="M233.44,99.87c0.33-0.35,0.63-0.7,0.89-1.06l-9.75-0.76c-0.55,1.38-0.4,2.59,0.44,3.63
			c0.8,0.98,1.84,1.4,3.13,1.25c1.29-0.15,2.68-0.83,4.17-2.03C232.74,100.56,233.11,100.21,233.44,99.87"/>
	</g>
	<g style="clip-path:url(#SVGID_00000072273864171278623760000002653793980836116645_);">
		<path class="st1" d="M253.65,149.81c-1.08-0.72-2.58-1.11-4.49-1.16c-1.07-0.03-2.07,0.07-3.01,0.29l6.92,6.96
			c0.67-0.33,1.19-0.75,1.56-1.26c0.37-0.51,0.56-1.11,0.59-1.8C255.25,151.54,254.73,150.54,253.65,149.81"/>
	</g>
	<g style="clip-path:url(#SVGID_00000072273864171278623760000002653793980836116645_);">
		<path class="st1" d="M191.68,78.26c1.18,0.45,2.3,0.28,3.33-0.51c1.04-0.78,1.9-2.07,2.57-3.86c0.19-0.5,0.33-0.98,0.44-1.45
			c0.11-0.47,0.18-0.92,0.23-1.37l-8.8,4.27C189.69,76.82,190.43,77.79,191.68,78.26"/>
	</g>
	<g style="clip-path:url(#SVGID_00000072273864171278623760000002653793980836116645_);">
		<path class="st1" d="M197.55,67.85c-0.36-0.51-0.87-0.89-1.51-1.14c-1.21-0.46-2.34-0.29-3.37,0.49
			c-1.03,0.79-1.89,2.08-2.56,3.87c-0.38,1-0.61,1.98-0.7,2.95l8.82-4.29C198.14,68.99,197.91,68.37,197.55,67.85"/>
	</g>
	<g style="clip-path:url(#SVGID_00000072273864171278623760000002653793980836116645_);">
		<polygon class="st1" points="403.29,215.73 377.58,215.73 377.58,212.15 397.01,190.78 381.22,190.78 381.22,198.62 
			377.64,198.62 377.64,187.2 402.59,187.2 402.59,190.78 383.15,212.15 399.71,212.15 399.71,204.31 403.29,204.31 		"/>
	</g>
	<g style="clip-path:url(#SVGID_00000072273864171278623760000002653793980836116645_);">
		<path class="st1" d="M437.38,215.42c0,1.96-0.34,3.7-1.01,5.23c-0.67,1.53-1.62,2.83-2.83,3.89c-1.21,1.06-2.64,1.87-4.28,2.43
			c-1.64,0.56-3.47,0.84-5.49,0.84c-2.84,0-5.25-0.53-7.24-1.59c-1.99-1.06-3.71-2.59-5.16-4.59l2.94-2.27
			c0.88,1.33,2.14,2.44,3.79,3.34c1.65,0.9,3.53,1.35,5.65,1.35c2.89,0,5.18-0.73,6.86-2.19c1.68-1.46,2.52-3.57,2.52-6.32v-3.06
			c-2.49,2.2-5.32,3.31-8.5,3.31c-4.46,0-7.97-1.28-10.52-3.83c-2.55-2.55-3.82-6.04-3.82-10.47c0-2.16,0.33-4.16,0.99-5.98
			c0.66-1.82,1.61-3.41,2.84-4.74c1.23-1.34,2.73-2.38,4.51-3.12c1.77-0.74,3.77-1.12,5.99-1.12c1.55,0,3.05,0.27,4.51,0.82
			c1.46,0.55,2.79,1.36,3.99,2.45v-2.6h4.25V215.42z M433.13,193.87c-1.2-1.32-2.52-2.28-3.96-2.87c-1.44-0.59-2.95-0.89-4.54-0.89
			c-1.67,0-3.14,0.29-4.41,0.89c-1.27,0.59-2.33,1.4-3.16,2.42c-0.84,1.02-1.47,2.23-1.91,3.62c-0.44,1.4-0.66,2.89-0.66,4.48
			c0,3.26,0.85,5.86,2.54,7.79c1.69,1.94,4.23,2.9,7.61,2.9c1.59,0,3.1-0.3,4.54-0.9c1.44-0.6,2.75-1.58,3.96-2.92V193.87z"/>
	</g>
	<g style="clip-path:url(#SVGID_00000072273864171278623760000002653793980836116645_);">
		<path class="st1" d="M473.84,201.56c0,2.23-0.35,4.24-1.06,6.06c-0.7,1.82-1.71,3.37-3.03,4.67c-1.32,1.3-2.89,2.31-4.73,3.05
			c-1.84,0.74-3.89,1.1-6.15,1.1c-2.22,0-4.25-0.37-6.09-1.1c-1.84-0.73-3.41-1.75-4.73-3.05c-1.32-1.29-2.33-2.85-3.03-4.67
			c-0.71-1.82-1.06-3.83-1.06-6.06c0-2.16,0.35-4.18,1.06-6.05c0.7-1.87,1.71-3.46,3.03-4.77c1.32-1.32,2.89-2.35,4.73-3.09
			c1.84-0.74,3.87-1.12,6.09-1.12c2.27,0,4.32,0.37,6.15,1.12c1.84,0.75,3.41,1.78,4.73,3.09c1.32,1.32,2.33,2.91,3.03,4.77
			C473.48,197.38,473.84,199.39,473.84,201.56 M469.64,201.57c0-1.63-0.24-3.13-0.72-4.51c-0.48-1.37-1.19-2.58-2.13-3.62
			c-0.94-1.04-2.08-1.86-3.41-2.44c-1.34-0.59-2.84-0.89-4.52-0.89c-1.67,0-3.18,0.3-4.51,0.89c-1.34,0.59-2.46,1.41-3.38,2.44
			c-0.92,1.04-1.62,2.25-2.1,3.62c-0.48,1.38-0.72,2.88-0.72,4.51c0,1.63,0.24,3.13,0.72,4.51c0.48,1.37,1.18,2.56,2.1,3.56
			c0.92,1,2.05,1.78,3.38,2.36c1.34,0.57,2.84,0.85,4.51,0.85c1.67,0,3.18-0.29,4.52-0.85c1.34-0.57,2.47-1.36,3.41-2.36
			c0.94-1,1.65-2.19,2.13-3.56C469.4,204.7,469.64,203.2,469.64,201.57"/>
	</g>
	<g style="clip-path:url(#SVGID_00000072273864171278623760000002653793980836116645_);">
		<path class="st1" d="M505.82,215.73h-4.25v-2.63c-1.2,1.08-2.52,1.91-3.96,2.48c-1.44,0.57-2.91,0.86-4.42,0.86
			c-2.26,0-4.29-0.37-6.08-1.1c-1.79-0.73-3.31-1.76-4.54-3.07c-1.23-1.32-2.18-2.89-2.84-4.73c-0.66-1.83-0.99-3.85-0.99-6.03
			c0-2.16,0.33-4.17,0.99-6.01c0.66-1.85,1.61-3.43,2.84-4.74c1.23-1.32,2.74-2.35,4.54-3.09c1.79-0.74,3.82-1.12,6.08-1.12
			c1.51,0,2.98,0.27,4.42,0.81c1.44,0.54,2.76,1.35,3.96,2.43v-10.4h-5.69v-3.58h9.95V215.73z M501.57,193.87
			c-1.2-1.32-2.51-2.28-3.93-2.87c-1.42-0.59-2.92-0.89-4.51-0.89c-1.67,0-3.14,0.29-4.41,0.89c-1.27,0.59-2.34,1.4-3.19,2.42
			c-0.86,1.02-1.5,2.21-1.94,3.59c-0.44,1.38-0.66,2.88-0.66,4.51c0,1.63,0.22,3.13,0.66,4.51c0.44,1.37,1.09,2.57,1.94,3.59
			c0.85,1.02,1.92,1.82,3.19,2.41c1.27,0.59,2.74,0.89,4.41,0.89c3.22,0,6.03-1.27,8.43-3.82V193.87z"/>
	</g>
	<g style="clip-path:url(#SVGID_00000072273864171278623760000002653793980836116645_);">
		<path class="st1" d="M542.27,201.56c0,2.23-0.35,4.24-1.06,6.06c-0.7,1.82-1.71,3.37-3.03,4.67c-1.32,1.3-2.89,2.31-4.73,3.05
			c-1.84,0.74-3.89,1.1-6.15,1.1c-2.22,0-4.25-0.37-6.09-1.1c-1.84-0.73-3.41-1.75-4.73-3.05c-1.32-1.29-2.33-2.85-3.03-4.67
			c-0.7-1.82-1.06-3.83-1.06-6.06c0-2.16,0.35-4.18,1.06-6.05c0.7-1.87,1.71-3.46,3.03-4.77c1.32-1.32,2.89-2.35,4.73-3.09
			c1.84-0.74,3.87-1.12,6.09-1.12c2.27,0,4.32,0.37,6.15,1.12c1.84,0.75,3.41,1.78,4.73,3.09c1.32,1.32,2.33,2.91,3.03,4.77
			C541.92,197.38,542.27,199.39,542.27,201.56 M538.08,201.57c0-1.63-0.24-3.13-0.72-4.51c-0.48-1.37-1.19-2.58-2.13-3.62
			c-0.94-1.04-2.08-1.86-3.41-2.44c-1.34-0.59-2.84-0.89-4.52-0.89c-1.67,0-3.18,0.3-4.51,0.89c-1.34,0.59-2.46,1.41-3.38,2.44
			c-0.92,1.04-1.62,2.25-2.1,3.62c-0.48,1.38-0.72,2.88-0.72,4.51c0,1.63,0.24,3.13,0.72,4.51c0.48,1.37,1.18,2.56,2.1,3.56
			c0.92,1,2.05,1.78,3.38,2.36c1.34,0.57,2.84,0.85,4.51,0.85c1.67,0,3.18-0.29,4.52-0.85c1.34-0.57,2.47-1.36,3.41-2.36
			c0.94-1,1.65-2.19,2.13-3.56C537.84,204.7,538.08,203.2,538.08,201.57"/>
	</g>
	<g style="clip-path:url(#SVGID_00000072273864171278623760000002653793980836116645_);">
		<polygon class="st1" points="576.7,187.2 564.34,215.73 558.7,215.73 546.28,187.2 551.3,187.2 561.52,212.21 571.68,187.2 		"/>
	</g>
	<g style="clip-path:url(#SVGID_00000072273864171278623760000002653793980836116645_);">
		<path class="st1" d="M604.22,215.73h-17.08v-3.58h6.4v-21.36h-6.4v-3.58h10.65v24.95h6.43V215.73z M598.52,181.51h-5.69v-5.72
			h5.69V181.51z"/>
	</g>
	<g style="clip-path:url(#SVGID_00000072273864171278623760000002653793980836116645_);">
		<path class="st1" d="M642.69,215.73h-4.25v-17.58c0-2.55-0.55-4.52-1.65-5.93c-1.1-1.41-2.88-2.11-5.35-2.11
			c-1.55,0-2.95,0.36-4.2,1.07c-1.25,0.71-2.32,1.66-3.19,2.86c-0.88,1.19-1.54,2.56-2,4.1c-0.46,1.54-0.69,3.14-0.69,4.81v12.78
			h-4.19V187.2h4.19v7.16c2.02-5.22,5.62-7.83,10.8-7.83c7.02,0,10.53,3.87,10.53,11.6V215.73z"/>
	</g>
	<g style="clip-path:url(#SVGID_00000072273864171278623760000002653793980836116645_);">
		<path class="st1" d="M649.82,208.02c0-1.8,0.45-3.3,1.34-4.52c0.9-1.21,2.07-2.17,3.53-2.88c1.46-0.7,3.13-1.21,5.01-1.53
			c1.89-0.32,3.8-0.48,5.76-0.48c0.76,0,1.43,0.01,2.03,0.03c0.6,0.02,1.17,0.05,1.71,0.09s1.09,0.09,1.64,0.15
			c0.55,0.06,1.15,0.13,1.8,0.21v-2.05c0-1.38-0.3-2.52-0.9-3.42c-0.6-0.89-1.34-1.6-2.22-2.12c-0.88-0.52-1.8-0.88-2.76-1.1
			c-0.96-0.21-1.77-0.32-2.45-0.32c-2.12,0-4.08,0.29-5.88,0.86c-1.79,0.57-3.47,1.34-5.02,2.29l-1.9-3.15
			c1.71-1.05,3.64-1.91,5.77-2.58c2.13-0.67,4.47-1,7.02-1c1.55,0,3.08,0.2,4.58,0.6c1.5,0.4,2.85,1.01,4.05,1.84
			c1.2,0.83,2.16,1.91,2.88,3.26c0.72,1.35,1.08,2.96,1.08,4.84v18.67h-4.25l0.03-4.78c-0.73,0.92-1.57,1.72-2.5,2.42
			c-0.93,0.69-1.9,1.26-2.92,1.7c-1.02,0.44-2.04,0.78-3.06,1.01c-1.02,0.23-1.99,0.35-2.91,0.35c-3.77,0-6.63-0.72-8.57-2.17
			C650.79,212.81,649.82,210.73,649.82,208.02 M661.29,212.85c1.75,0,3.33-0.26,4.72-0.78c1.4-0.52,2.58-1.17,3.56-1.94
			c0.98-0.78,1.74-1.6,2.28-2.48c0.54-0.88,0.81-1.67,0.81-2.39v-2.69c-1.36-0.2-2.67-0.32-3.93-0.34
			c-1.25-0.02-2.34-0.03-3.25-0.03c-1.51,0-2.96,0.1-4.36,0.3c-1.4,0.2-2.61,0.54-3.65,0.99c-1.04,0.46-1.87,1.06-2.5,1.79
			c-0.63,0.73-0.95,1.64-0.95,2.72c0,1.2,0.58,2.31,1.76,3.32C656.94,212.35,658.78,212.85,661.29,212.85"/>
	</g>
	<g style="clip-path:url(#SVGID_00000072273864171278623760000002653793980836116645_);">
		<path class="st1" d="M405.03,290.95h-5.33l-11.66-17.11h-6.21v17.11h-4.19V251h13.16c4.39,0,7.78,0.95,10.19,2.86
			c2.41,1.91,3.61,4.76,3.61,8.55c0,1.67-0.3,3.18-0.89,4.52c-0.59,1.34-1.4,2.47-2.42,3.41c-1.02,0.94-2.24,1.69-3.66,2.26
			c-1.42,0.57-2.96,0.92-4.64,1.04L405.03,290.95z M400.26,262.42c0-2.71-0.84-4.7-2.53-5.95c-1.68-1.26-3.99-1.88-6.93-1.88h-8.97
			v15.67h8.97c2.94,0,5.25-0.62,6.93-1.85C399.42,267.17,400.26,265.17,400.26,262.42"/>
	</g>
	<g style="clip-path:url(#SVGID_00000072273864171278623760000002653793980836116645_);">
		<path class="st1" d="M440.81,290.95h-4.5l-3.76-11.42h-15.79l-3.7,11.42h-4.5L421.84,251h5.69L440.81,290.95z M431.35,275.83
			l-6.7-20.6l-6.7,20.6H431.35z"/>
	</g>
	<g style="clip-path:url(#SVGID_00000072273864171278623760000002653793980836116645_);">
		<path class="st1" d="M473.34,280.48c-1.04,3.43-2.74,6.15-5.11,8.16c-2.37,2.01-5.35,3.01-8.94,3.01c-2.8,0-5.16-0.58-7.1-1.73
			c-1.94-1.15-3.53-2.68-4.76-4.58c-1.23-1.9-2.12-4.09-2.66-6.58c-0.54-2.49-0.81-5.07-0.81-7.74c0-2.67,0.27-5.25,0.81-7.74
			c0.54-2.49,1.43-4.69,2.66-6.61c1.24-1.92,2.82-3.45,4.76-4.61c1.94-1.15,4.3-1.73,7.1-1.73c2.47,0,4.58,0.44,6.34,1.32
			c1.75,0.88,3.05,2.21,3.89,4.01V251h3.58v13.1h-3.58c0-1.41-0.27-2.74-0.81-3.99c-0.54-1.26-1.27-2.34-2.19-3.26
			c-0.92-0.92-2.01-1.64-3.26-2.16c-1.26-0.52-2.58-0.78-3.96-0.78c-2.16,0-3.95,0.51-5.37,1.53c-1.42,1.02-2.56,2.36-3.41,4.01
			c-0.86,1.65-1.46,3.49-1.82,5.51c-0.36,2.02-0.54,4.04-0.54,6.06c0,2,0.18,4.02,0.54,6.05c0.36,2.03,0.97,3.86,1.82,5.48
			c0.86,1.62,1.99,2.95,3.41,3.98c1.42,1.03,3.21,1.55,5.37,1.55c4.98,0,8.45-3.01,10.41-9.03L473.34,280.48z M467.96,239.93
			l-9.09,8.69l-9.09-8.81l1.62-2.08l7.53,6.34l7.41-6.21L467.96,239.93z"/>
	</g>
	<g style="clip-path:url(#SVGID_00000072273864171278623760000002653793980836116645_);">
		<path class="st1" d="M505.82,276.71c0,2.26-0.25,4.32-0.75,6.15c-0.5,1.84-1.28,3.4-2.33,4.7c-1.05,1.3-2.38,2.3-3.99,3.02
			c-1.61,0.71-3.52,1.07-5.73,1.07c-2.22,0-4.14-0.36-5.74-1.07c-1.6-0.71-2.92-1.72-3.95-3.02c-1.03-1.3-1.79-2.87-2.29-4.73
			c-0.5-1.86-0.75-3.92-0.75-6.18V251h4.19v25.71c0,1.2,0.11,2.48,0.32,3.83c0.21,1.34,0.63,2.57,1.25,3.67
			c0.62,1.1,1.49,2.02,2.6,2.75c1.11,0.73,2.56,1.1,4.35,1.1c1.79,0,3.25-0.37,4.38-1.1c1.13-0.73,2.01-1.65,2.63-2.75
			c0.62-1.1,1.03-2.33,1.24-3.67c0.2-1.35,0.31-2.62,0.31-3.83V251h4.25V276.71z"/>
	</g>
	<g style="clip-path:url(#SVGID_00000072273864171278623760000002653793980836116645_);">
		<polygon class="st1" points="540.04,290.95 534.83,290.95 518.71,257.16 518.71,290.95 514.51,290.95 514.51,251 520.41,251 
			535.78,283.23 535.78,251 540.04,251 		"/>
	</g>
	<g style="clip-path:url(#SVGID_00000072273864171278623760000002653793980836116645_);">
		<path class="st1" d="M577.68,290.95h-4.5l-3.76-11.42h-15.79l-3.7,11.42h-4.5L558.71,251h5.69L577.68,290.95z M568.22,275.83
			l-6.7-20.6l-6.7,20.6H568.22z"/>
	</g>
	<g style="clip-path:url(#SVGID_00000072273864171278623760000002653793980836116645_);">
		<polygon class="st1" points="608.47,290.95 582.95,290.95 582.95,251 587.14,251 587.14,287.36 608.47,287.36 		"/>
	</g>
	<g style="clip-path:url(#SVGID_00000072273864171278623760000002653793980836116645_);">
		<polygon class="st1" points="642.69,290.95 637.49,290.95 621.36,257.16 621.36,290.95 617.16,290.95 617.16,251 623.06,251 
			638.44,283.23 638.44,251 642.69,251 		"/>
	</g>
	<g style="clip-path:url(#SVGID_00000072273864171278623760000002653793980836116645_);">
		<polygon class="st1" points="672.71,290.95 655.57,290.95 655.57,287.36 662.03,287.36 662.03,254.59 655.57,254.59 655.57,251 
			672.71,251 672.71,254.59 666.29,254.59 666.29,287.36 672.71,287.36 		"/>
	</g>
	<g style="clip-path:url(#SVGID_00000072273864171278623760000002653793980836116645_);">
		<path class="st1" d="M711.61,280.54c0,1.67-0.35,3.19-1.04,4.55c-0.69,1.36-1.62,2.53-2.78,3.5c-1.16,0.98-2.5,1.73-4.01,2.26
			c-1.51,0.53-3.08,0.8-4.71,0.8c-2.25,0-4.31-0.42-6.18-1.26c-1.88-0.84-3.37-2.07-4.47-3.7v4.25h-3.55v-12.15h3.55
			c0,1.37,0.32,2.62,0.95,3.75c0.63,1.13,1.44,2.11,2.42,2.92c0.98,0.82,2.11,1.45,3.38,1.91c1.28,0.46,2.58,0.69,3.9,0.69
			c1.18,0,2.27-0.17,3.27-0.51c1-0.34,1.88-0.82,2.63-1.44c0.75-0.62,1.35-1.38,1.79-2.28s0.66-1.92,0.66-3.06
			c0-1.29-0.28-2.39-0.84-3.31c-0.56-0.92-1.32-1.7-2.26-2.36c-0.95-0.65-2.02-1.21-3.2-1.67c-1.18-0.46-2.39-0.91-3.61-1.36
			c-1.45-0.51-2.9-1.04-4.35-1.61c-1.45-0.56-2.74-1.27-3.89-2.13c-1.14-0.86-2.07-1.9-2.78-3.14c-0.71-1.24-1.07-2.77-1.07-4.61
			c0-1.63,0.35-3.09,1.04-4.36c0.69-1.27,1.6-2.35,2.72-3.23c1.12-0.88,2.43-1.55,3.92-2c1.49-0.46,3.02-0.69,4.59-0.69
			c1.94,0,3.73,0.4,5.37,1.19c1.64,0.79,2.92,2.01,3.84,3.64V251h3.71v11.42h-3.71c0-1.2-0.25-2.33-0.75-3.38
			c-0.5-1.05-1.18-1.95-2.04-2.69c-0.86-0.74-1.84-1.34-2.94-1.78c-1.1-0.44-2.26-0.66-3.49-0.66c-1.08,0-2.11,0.12-3.09,0.37
			c-0.98,0.24-1.84,0.64-2.57,1.18c-0.73,0.54-1.32,1.24-1.76,2.1c-0.44,0.86-0.66,1.88-0.66,3.06c0,1.04,0.26,1.93,0.78,2.66
			c0.52,0.74,1.22,1.38,2.1,1.94c0.88,0.56,1.89,1.07,3.04,1.53c1.15,0.46,2.33,0.93,3.54,1.39c1.51,0.53,3.01,1.12,4.5,1.77
			c1.49,0.65,2.83,1.44,4.01,2.36c1.18,0.92,2.15,2.05,2.91,3.38C711.24,276.99,711.61,278.62,711.61,280.54 M707.48,239.93
			l-9.09,8.69l-9.09-8.81l1.62-2.08l7.53,6.34l7.41-6.21L707.48,239.93z"/>
	</g>
	<g style="clip-path:url(#SVGID_00000072273864171278623760000002653793980836116645_);">
		<polygon class="st1" points="746.84,264.5 743.26,264.5 743.26,254.59 734.72,254.59 734.72,287.36 741.15,287.36 741.15,290.94 
			724.01,290.94 724.01,287.36 730.47,287.36 730.47,254.59 721.9,254.59 721.9,264.5 718.32,264.5 718.32,251 746.84,251 		"/>
	</g>
	<g style="clip-path:url(#SVGID_00000072273864171278623760000002653793980836116645_);">
		<polygon class="st1" points="782.98,251 769.64,290.95 763.95,290.95 750.73,251 755.17,251 766.82,286.69 778.43,251 		"/>
	</g>
	<g style="clip-path:url(#SVGID_00000072273864171278623760000002653793980836116645_);">
		<path class="st1" d="M817.2,290.95h-4.5l-3.76-11.42h-15.79l-3.7,11.42h-4.5L798.23,251h5.69L817.2,290.95z M807.75,275.83
			l-6.7-20.6l-6.7,20.6H807.75z"/>
	</g>
</g>
<g>
	<rect x="212.76" y="209.82" class="st1" width="1.26" height="69.01"/>
</g>
</svg>
